<?xml version="1.0" encoding="UTF-8"?>
<svg id="Layer_2" data-name="Layer 2" xmlns="http://www.w3.org/2000/svg" viewBox="0 0 30 6.78">
  <defs>
    <style>
      .cls-1 {
        fill: #fff;
      }
    </style>
  </defs>
  <g id="Layer_1-2" data-name="Layer 1">
    <g>
      <path class="cls-1" d="M9.68,0l-1.77,6.78h-2l-1.08-4.46-1.12,4.46h-2L0,0h1.77l.98,4.93L3.95,0h1.82l1.16,4.93.99-4.93h1.78Z"/>
      <path class="cls-1" d="M19.84,0l-1.77,6.78h-2l-1.08-4.46-1.12,4.46h-2l-1.72-6.78h1.77l.98,4.93,1.21-4.93h1.82l1.16,4.93.99-4.93h1.78Z"/>
      <path class="cls-1" d="M30,0l-1.77,6.78h-2l-1.08-4.46-1.12,4.46h-2l-1.72-6.78h1.77l.98,4.93,1.21-4.93h1.82l1.16,4.93.99-4.93h1.78Z"/>
    </g>
  </g>
</svg>