<svg xmlns="http://www.w3.org/2000/svg" viewBox="0 0 30 30.29">
  <g>
    <g>
      <path fill="#5454ef" d="M10.76,16.62l-2.61,13.56,4.68-1.71,2.26-11.72c.22-1.13-.21-2.3-1.1-3.02L4.8,6.3.11,8.01l10.64,8.61Z"/>
      <path fill="#55d4e5" d="M19.15,13.55l10.74,8.68-4.68,1.71-9.28-7.5c-.9-.73-1.32-1.89-1.1-3.02l2.23-11.6L21.74.11l-2.59,13.44Z"/>
      <path fill="#e98300" d="M10.88,13.48L0,21.99l4.66,1.79,9.4-7.35c.91-.71,1.35-1.87,1.15-3.01L13.16,1.79l-4.66-1.79,2.37,13.48Z"/>
      <path fill="#e2d313" d="M19.22,16.68l2.39,13.6-4.66-1.79-2.07-11.75c-.2-1.14.24-2.29,1.15-3.01l9.3-7.28,4.66,1.79-10.78,8.43Z"/>
    </g>
  </g>
</svg>